<svg xmlns="http://www.w3.org/2000/svg" viewBox="0 0 640 420"><defs><linearGradient id="g" x1="0" y1="0" x2="1" y2="1"><stop stop-color="#8a9096"/><stop offset="1" stop-color="#4a4f54"/></linearGradient><radialGradient id="bg" cx="50%" cy="42%" r="65%"><stop offset="0%" stop-color="#8a9096" stop-opacity=".16"/><stop offset="100%" stop-color="#8a9096" stop-opacity="0"/></radialGradient><linearGradient id="hl" x1="0" y1="0" x2="0" y2="1"><stop stop-color="#ffffff" stop-opacity=".55"/><stop offset="1" stop-color="#ffffff" stop-opacity="0"/></linearGradient><filter id="sh"><feDropShadow dx="0" dy="16" stdDeviation="14" flood-opacity=".2"/></filter></defs><rect width="640" height="420" rx="28" fill="#f2f4f5"/><circle cx="320" cy="195" r="185" fill="url(#bg)"/><ellipse cx="320" cy="330" rx="170" ry="22" fill="#dde1e3"/><g transform="translate(320,205) scale(1.3) translate(-320,-205)"><g filter="url(#sh)" transform="rotate(28 320 205)"><rect x="270" y="185" width="100" height="34" rx="10" fill="url(#g)"/><path d="M270 185a34 34 0 1 1 0 34z" fill="url(#g)"/><circle cx="253" cy="202" r="20" fill="#f2f4f5"/><path d="M370 185h30a34 34 0 0 1 0 34h-30z" fill="url(#g)"/><circle cx="404" cy="202" r="14" fill="#f2f4f5"/></g></g></svg>